<svg width="150" height="45" viewBox="0 0 150 45" fill="none" xmlns="http://www.w3.org/2000/svg">
<path d="M144.359 43.7831H5.64641C2.83532 43.7831 0.557373 41.4952 0.557373 38.6719V5.66828C0.557373 2.84496 2.83532 0.557098 5.64641 0.557098H144.359C147.17 0.557098 149.448 2.84496 149.448 5.66828V38.6719C149.448 41.4952 147.17 43.7831 144.359 43.7831Z" fill="white"/>
<mask id="mask0_339_361" style="mask-type:luminance" maskUnits="userSpaceOnUse" x="0" y="0" width="150" height="45">
<path d="M0 0H150V45H0V0Z" fill="white"/>
</mask>
<g mask="url(#mask0_339_361)">
<path d="M5.64371 1.1169C3.14497 1.1169 1.11205 3.15866 1.11205 5.66828V38.6719C1.11205 41.1815 3.14497 43.2233 5.64371 43.2233H144.359C146.858 43.2233 148.891 41.1815 148.891 38.6719V5.66828C148.891 3.15866 146.858 1.1169 144.359 1.1169H5.64371ZM144.359 44.3429H5.64371C2.53105 44.3429 0 41.7981 0 38.6719V5.66828C0 2.54208 2.53105 -0.00269318 5.64371 -0.00269318H144.359C147.472 -0.00269318 150.003 2.54208 150.003 5.66828V38.6719C150.003 41.7981 147.472 44.3429 144.359 44.3429Z" fill="black"/>
</g>
<path d="M52.0159 11.6043L51.4451 9.80858C51.3051 9.36507 51.1866 8.87018 51.0789 8.4483H51.0574C50.9523 8.87018 50.8419 9.37589 50.7154 9.80858L50.1553 11.6043H52.0159ZM49.9399 12.6076L49.3152 14.6737H47.9474L50.2738 7.38821H51.9621L54.3181 14.6737H52.8991L52.2421 12.6076" fill="black"/>
<path d="M56.2971 9.41101L57.148 12.0775C57.2987 12.5426 57.4038 12.9645 57.5007 13.3972H57.533C57.6299 12.9645 57.7484 12.5534 57.8884 12.0775L58.7285 9.41101H60.1152L58.1146 14.6736H56.8141L54.8646 9.41101" fill="black"/>
<path d="M64.1083 12.0992C63.1713 12.0884 62.2774 12.2831 62.2774 13.0835C62.2774 13.6028 62.6113 13.8408 63.0313 13.8408C63.5671 13.8408 63.9468 13.4946 64.0733 13.116C64.1083 13.0186 64.1083 12.9213 64.1083 12.8239V12.0992ZM65.3981 13.4081C65.3981 13.884 65.4196 14.3492 65.4843 14.671H64.2887L64.1945 14.0896H64.1595C63.8499 14.4979 63.3006 14.79 62.6113 14.79C61.5557 14.79 60.9661 14.0247 60.9661 13.2242C60.9661 11.9045 62.1374 11.2257 64.0733 11.2365V11.15C64.0733 10.8038 63.936 10.2305 63.0098 10.2305C62.4928 10.2305 61.9543 10.3927 61.5988 10.6199L61.3403 9.75452C61.7281 9.51654 62.4066 9.29208 63.2359 9.29208C64.9134 9.29208 65.3981 10.3603 65.3981 11.5177" fill="black"/>
<path d="M67.2695 9.41101H68.5916V14.6736H67.2695V9.41101ZM67.9238 8.6538C67.4849 8.6538 67.1941 8.32928 67.1941 7.93986C67.1941 7.5288 67.493 7.2151 67.9373 7.2151C68.3869 7.2151 68.667 7.5288 68.6777 7.93986C68.6777 8.32928 68.3869 8.6538 67.9373 8.6538" fill="black"/>
<path d="M70.4952 14.6737H71.82V6.98804H70.4952V14.6737Z" fill="black"/>
<path d="M76.5106 12.0992C75.5735 12.0884 74.6796 12.2831 74.6796 13.0835C74.6796 13.6028 75.0135 13.8408 75.4335 13.8408C75.972 13.8408 76.349 13.4946 76.4783 13.116C76.5106 13.0186 76.5106 12.9213 76.5106 12.8239V12.0992ZM77.8003 13.4081C77.8003 13.884 77.8219 14.3492 77.8865 14.671H76.6937L76.5967 14.0896H76.5644C76.2521 14.4979 75.7028 14.79 75.0135 14.79C73.9607 14.79 73.3683 14.0247 73.3683 13.2242C73.3683 11.9045 74.5423 11.2257 76.4783 11.2365V11.15C76.4783 10.8038 76.3382 10.2305 75.412 10.2305C74.895 10.2305 74.3565 10.3927 74.0037 10.6199L73.7453 9.75452C74.133 9.51654 74.8088 9.29208 75.6382 9.29208C77.3157 9.29208 77.8003 10.3603 77.8003 11.5177" fill="black"/>
<path d="M80.9964 12.4995C80.9964 12.6076 81.0072 12.7158 81.0287 12.8132C81.1687 13.354 81.6318 13.7434 82.2 13.7434C83.0293 13.7434 83.5355 13.0836 83.5355 12.0154C83.5355 11.0851 83.0939 10.3279 82.2108 10.3279C81.6722 10.3279 81.1795 10.7173 81.0395 11.3014C81.0179 11.3988 80.9964 11.5178 80.9964 11.6476V12.4995ZM79.6716 6.98804H80.9964V10.1332H81.0179C81.341 9.62476 81.9092 9.29212 82.6954 9.29212C83.9771 9.29212 84.8899 10.3603 84.8791 11.9613C84.8791 13.8516 83.6863 14.7927 82.5016 14.7927C81.823 14.7927 81.2226 14.5331 80.8456 13.8841H80.8241L80.7594 14.6737H79.6285C79.6501 14.3168 79.6716 13.7326 79.6716 13.2026" fill="black"/>
<path d="M86.4382 14.6737H87.7603V6.98804H86.4382V14.6737Z" fill="black"/>
<path d="M92.9139 11.4853C92.9247 10.9985 92.7093 10.198 91.8288 10.198C91.0102 10.198 90.6656 10.9444 90.6117 11.4853H92.9139ZM90.6117 12.4129C90.644 13.3648 91.3872 13.7759 92.2273 13.7759C92.8385 13.7759 93.2693 13.6785 93.6786 13.5379L93.8725 14.4438C93.4201 14.6412 92.7954 14.7792 92.0442 14.7792C90.3425 14.7792 89.3408 13.7326 89.3408 12.1235C89.3408 10.6632 90.224 9.29208 91.9042 9.29208C93.6032 9.29208 94.1633 10.6956 94.1633 11.8531C94.1633 12.1019 94.1417 12.2966 94.1202 12.4129" fill="black"/>
<path d="M100.736 13.8299C101.487 13.8299 102.015 13.0944 102.015 12.0262C102.015 11.204 101.649 10.2521 100.747 10.2521C99.8097 10.2521 99.4328 11.1716 99.4328 12.0478C99.4328 13.0619 99.939 13.8299 100.723 13.8299H100.736ZM100.693 14.7927C99.2174 14.7927 98.0676 13.7759 98.0676 12.0802C98.0676 10.3495 99.1958 9.29208 100.779 9.29208C102.338 9.29208 103.383 10.3927 103.383 11.9937C103.383 13.9273 102.026 14.7927 100.704 14.7927" fill="black"/>
<path d="M104.939 10.9769C104.939 10.3711 104.92 9.8627 104.899 9.40837H106.049L106.113 10.198H106.145C106.382 9.78698 106.953 9.29208 107.826 9.29208C108.738 9.29208 109.686 9.88433 109.686 11.5502V14.671H108.362V11.7016C108.362 10.9444 108.081 10.3711 107.363 10.3711C106.835 10.3711 106.469 10.7497 106.329 11.15C106.285 11.2581 106.264 11.4204 106.264 11.5718V14.671H104.939" fill="black"/>
<path d="M115.785 8.05884V9.4083H117.042V10.4035H115.785V12.7157C115.785 13.3647 115.957 13.6892 116.461 13.6892C116.698 13.6892 116.827 13.6784 116.978 13.6352L116.999 14.6385C116.806 14.7169 116.45 14.7791 116.041 14.7791C115.548 14.7791 115.15 14.6168 114.902 14.3491C114.611 14.0462 114.482 13.5594 114.482 12.8671V10.4035H113.739V9.4083H114.482V8.42663" fill="black"/>
<path d="M118.515 6.98804H119.84V10.1224H119.862C120.023 9.87355 120.249 9.66803 120.519 9.5274C120.788 9.37866 121.097 9.29212 121.431 9.29212C122.325 9.29212 123.26 9.88437 123.26 11.5719V14.6737H121.938V11.7125C121.938 10.9553 121.658 10.3711 120.925 10.3711C120.411 10.3711 120.045 10.7173 119.894 11.1175C119.851 11.2365 119.84 11.3772 119.84 11.5178V14.6737H118.515" fill="black"/>
<path d="M128.381 11.4853C128.392 10.9985 128.176 10.198 127.293 10.198C126.475 10.198 126.133 10.9444 126.079 11.4853H128.381ZM126.079 12.4129C126.111 13.3648 126.852 13.7759 127.692 13.7759C128.306 13.7759 128.737 13.6785 129.143 13.5379L129.34 14.4438C128.887 14.6412 128.263 14.7792 127.509 14.7792C125.81 14.7792 124.808 13.7326 124.808 12.1235C124.808 10.6632 125.691 9.29208 127.369 9.29208C129.068 9.29208 129.628 10.6956 129.628 11.8531C129.628 12.1019 129.606 12.2966 129.585 12.4129" fill="black"/>
<path d="M33.4772 21.7373C33.4422 18.1325 36.4148 16.3773 36.5522 16.2962C34.8693 13.8299 32.2601 13.4945 31.342 13.4675C29.1529 13.2376 27.0284 14.7872 25.9137 14.7872C24.7747 14.7872 23.0541 13.4918 21.2043 13.5297C18.8186 13.5675 16.5891 14.9549 15.3667 17.1048C12.8464 21.4939 14.7259 27.941 17.1438 31.4891C18.3555 33.2253 19.7664 35.167 21.6163 35.0967C23.4257 35.021 24.1015 33.9392 26.2852 33.9392C28.4501 33.9392 29.0856 35.0967 30.9731 35.0534C32.9144 35.021 34.1369 33.3091 35.3028 31.554C36.703 29.5636 37.263 27.603 37.2846 27.5029C37.2388 27.4867 33.5149 26.0588 33.4772 21.7373Z" fill="black"/>
<path d="M29.9122 11.1364C30.8842 9.91401 31.5547 8.24815 31.3662 6.56065C29.958 6.62555 28.197 7.53961 27.1819 8.73492C26.2853 9.78961 25.4802 11.5177 25.6902 13.1403C27.2734 13.2593 28.8971 12.3398 29.9122 11.1364Z" fill="black"/>
<path d="M55.3144 28.6198L54.065 24.7445C53.9331 24.3497 53.6853 23.4167 53.3191 21.951H53.2761C53.1307 22.5811 52.8937 23.5141 52.5733 24.7445L51.3455 28.6198H55.3144ZM59.6333 34.81H57.1103L55.729 30.4507H50.9308L49.6141 34.81H47.1584L51.919 19.9687H54.8539" fill="black"/>
<path d="M69.4559 29.4149C69.4559 28.3711 69.2216 27.5138 68.7531 26.8377C68.2415 26.1346 67.5549 25.7803 66.6933 25.7803C66.109 25.7803 65.5758 25.9777 65.1046 26.3645C64.6307 26.7566 64.3184 27.265 64.1703 27.8978C64.0976 28.1899 64.0626 28.4306 64.0626 28.6199V30.4047C64.0626 31.1836 64.2995 31.8407 64.7734 32.3762C65.25 32.9143 65.8666 33.1794 66.626 33.1794C67.5199 33.1794 68.2146 32.8359 68.7073 32.1436C69.2082 31.454 69.4559 30.5454 69.4559 29.4149ZM71.8685 29.3257C71.8685 31.1457 71.3784 32.5871 70.3983 33.6418C69.5205 34.5829 68.43 35.0508 67.1322 35.0508C65.7266 35.0508 64.7196 34.5423 64.1057 33.5309H64.0626V39.1694H61.6931V27.6301C61.6931 26.4862 61.6662 25.3125 61.6069 24.1063H63.6883L63.8203 25.8047H63.866C64.655 24.5255 65.8532 23.8873 67.4607 23.8873C68.7154 23.8873 69.7682 24.3876 70.6056 25.3855C71.4457 26.3861 71.8685 27.6977 71.8685 29.3257Z" fill="black"/>
<path d="M81.71 29.4149C81.71 28.3711 81.4758 27.5138 81.0073 26.8377C80.4957 26.1346 79.8091 25.7803 78.9474 25.7803C78.3631 25.7803 77.8327 25.9777 77.3588 26.3645C76.8822 26.7566 76.5752 27.265 76.4298 27.8978C76.3544 28.1899 76.3194 28.4306 76.3194 28.6199V30.4047C76.3194 31.1836 76.5537 31.8407 77.0276 32.3762C77.5042 32.9143 78.1208 33.1794 78.8828 33.1794C79.7741 33.1794 80.4687 32.8359 80.9642 32.1436C81.4596 31.454 81.71 30.5454 81.71 29.4149ZM84.1199 29.3257C84.1199 31.1457 83.6326 32.5871 82.6525 33.6418C81.7747 34.5829 80.6868 35.0508 79.3863 35.0508C77.9835 35.0508 76.9764 34.5423 76.3598 33.5309H76.3194V39.1694H73.9499V27.6301C73.9499 26.4862 73.9203 25.3125 73.8638 24.1063H75.9452L76.0771 25.8047H76.1229C76.9091 24.5255 78.1073 23.8873 79.7148 23.8873C80.9723 23.8873 82.0197 24.3876 82.8625 25.3855C83.7026 26.3861 84.1199 27.6977 84.1199 29.3257Z" fill="black"/>
<path d="M97.8252 30.6482C97.8252 31.9084 97.389 32.936 96.5112 33.7311C95.5473 34.5965 94.209 35.0292 92.4885 35.0292C90.8971 35.0292 89.6208 34.7209 88.6542 34.1043L89.2035 32.1247C90.2455 32.7549 91.3845 33.0686 92.6285 33.0686C93.5197 33.0686 94.2144 32.8684 94.7126 32.4655C95.208 32.0598 95.4557 31.519 95.4557 30.8429C95.4557 30.2425 95.2538 29.7314 94.8445 29.3204C94.4352 28.9093 93.754 28.528 92.8035 28.1737C90.2159 27.2029 88.9234 25.7831 88.9234 23.9171C88.9234 22.6975 89.3758 21.6969 90.2832 20.918C91.1879 20.1392 92.3942 19.747 93.8994 19.747C95.2457 19.747 96.3631 19.985 97.2544 20.4529L96.662 22.3919C95.83 21.9375 94.8876 21.7077 93.8348 21.7077C93.0001 21.7077 92.3511 21.9132 91.8853 22.3243C91.4922 22.6921 91.2929 23.141 91.2929 23.6683C91.2929 24.2552 91.5164 24.7392 91.9715 25.1205C92.3646 25.4721 93.0808 25.8534 94.1202 26.2672C95.3911 26.781 96.3254 27.3814 96.9259 28.071C97.5236 28.7606 97.8252 29.6205 97.8252 30.6482Z" fill="black"/>
<path d="M105.65 25.8912H103.041V31.0862C103.041 32.4087 103.501 33.0685 104.425 33.0685C104.845 33.0685 105.198 33.0334 105.475 32.9603L105.54 34.7641C105.076 34.9426 104.46 35.0292 103.701 35.0292C102.766 35.0292 102.034 34.7425 101.506 34.1719C100.981 33.5986 100.717 32.6358 100.717 31.2864V25.8912H99.1608V24.1064H100.717V22.1484L103.041 21.4426V24.1064H105.65" fill="black"/>
<path d="M114.969 29.4474C114.969 28.4603 114.756 27.6166 114.331 26.908C113.838 26.0535 113.127 25.6262 112.207 25.6262C111.256 25.6262 110.532 26.0535 110.036 26.908C109.611 27.6166 109.404 28.4765 109.404 29.4934C109.404 30.4804 109.611 31.3242 110.036 32.03C110.548 32.8846 111.264 33.3119 112.188 33.3119C113.09 33.3119 113.801 32.8792 114.312 32.0084C114.751 31.289 114.969 30.4345 114.969 29.4474ZM117.425 29.3717C117.425 31.0159 116.959 32.3654 116.022 33.4228C115.042 34.5099 113.741 35.0508 112.12 35.0508C110.553 35.0508 109.309 34.5288 108.38 33.4877C107.454 32.4465 106.991 31.1322 106.991 29.5475C106.991 27.887 107.468 26.5294 108.426 25.4747C109.382 24.4146 110.672 23.8873 112.293 23.8873C113.857 23.8873 115.117 24.4092 116.065 25.4504C116.972 26.4672 117.425 27.7707 117.425 29.3717Z" fill="black"/>
<path d="M125.12 26.1995C124.886 26.1562 124.638 26.1346 124.374 26.1346C123.542 26.1346 122.896 26.451 122.444 27.0811C122.051 27.6409 121.854 28.344 121.854 29.1932V34.8101H119.487L119.506 27.4786C119.506 26.2428 119.477 25.1205 119.42 24.1063H121.483L121.569 26.1562H121.631C121.881 25.4531 122.277 24.8852 122.815 24.4606C123.343 24.0793 123.914 23.8873 124.528 23.8873C124.746 23.8873 124.945 23.9035 125.12 23.9306" fill="black"/>
<path d="M133.448 28.336C133.465 27.6328 133.311 27.0217 132.991 26.5078C132.581 25.848 131.949 25.5154 131.103 25.5154C130.33 25.5154 129.7 25.8399 129.218 26.4862C128.825 27 128.588 27.6166 128.521 28.336H133.448ZM135.705 28.9526C135.705 29.3798 135.678 29.7368 135.621 30.0316H128.521C128.545 31.089 128.89 31.8976 129.55 32.4547C130.147 32.955 130.923 33.2011 131.873 33.2011C132.923 33.2011 133.882 33.0334 134.746 32.6953L135.118 34.3477C134.108 34.7858 132.918 35.0102 131.542 35.0102C129.892 35.0102 128.594 34.5208 127.651 33.5418C126.712 32.5682 126.238 31.2566 126.238 29.6124C126.238 27.9979 126.674 26.6539 127.554 25.583C128.473 24.4363 129.717 23.8657 131.278 23.8657C132.813 23.8657 133.979 24.4363 134.768 25.583C135.395 26.4916 135.705 27.6166 135.705 28.9526Z" fill="black"/>
</svg>
