<svg width="24" height="24" viewBox="0 0 24 24" fill="none" xmlns="http://www.w3.org/2000/svg">
<path d="M12 20.5H7C4 20.5 2 19 2 15.5V8.50001C2 5.00002 4 3.50002 7 3.50002H17C20 3.50002 22 5.00002 22 8.50001V11.5" stroke="white" stroke-width="1.16119" stroke-miterlimit="10" stroke-linecap="round" stroke-linejoin="round"/>
<path d="M17 9.00002L13.87 11.5C12.84 12.32 11.15 12.32 10.12 11.5L7 9.00002M19.21 14.77L15.67 18.31C15.53 18.45 15.4 18.71 15.37 18.9L15.18 20.25C15.11 20.74 15.45 21.08 15.94 21.01L17.29 20.82C17.48 20.79 17.75 20.66 17.88 20.52L21.42 16.98C22.03 16.37 22.32 15.66 21.42 14.76C20.53 13.87 19.82 14.16 19.21 14.77Z" stroke="white" stroke-width="1.16119" stroke-miterlimit="10" stroke-linecap="round" stroke-linejoin="round"/>
<path d="M18.7 15.28C19 16.36 19.84 17.2 20.92 17.5" stroke="white" stroke-width="1.16119" stroke-miterlimit="10" stroke-linecap="round" stroke-linejoin="round"/>
</svg>
