<svg width="24" height="24" viewBox="0 0 24 24" fill="none" xmlns="http://www.w3.org/2000/svg">
<path d="M17 13.4V16.4C17 20.4 15.4 22 11.4 22H7.6C3.6 22 2 20.4 2 16.4V12.6C2 8.59997 3.6 6.99997 7.6 6.99997H10.6" stroke="white" stroke-width="1.16119" stroke-linecap="round" stroke-linejoin="round"/>
<path d="M11.6 1.99997H15.6M7 4.99997C7 3.33997 8.34 1.99997 10 1.99997H12.62M22 7.99997V14.19C22 15.74 20.74 17 19.19 17M22 7.99997H19C16.75 7.99997 16 7.24997 16 4.99997V1.99997L22 7.99997ZM17 13.4H13.8C11.4 13.4 10.6 12.6 10.6 10.2V6.99997L17 13.4Z" stroke="white" stroke-width="1.16119" stroke-linecap="round" stroke-linejoin="round"/>
</svg>
