<svg width="24" height="24" viewBox="0 0 24 24" fill="none" xmlns="http://www.w3.org/2000/svg">
<path d="M14.53 9.47003L9.47002 14.53C8.79902 13.859 8.42206 12.949 8.42206 12C8.42206 11.5302 8.5146 11.0649 8.69441 10.6308C8.87422 10.1967 9.13777 9.80228 9.47002 9.47003C9.80226 9.13779 10.1967 8.87424 10.6308 8.69443C11.0649 8.51462 11.5302 8.42207 12 8.42207C12.949 8.42207 13.859 8.79904 14.53 9.47003Z" stroke="white" stroke-width="1.16119" stroke-linecap="round" stroke-linejoin="round"/>
<path d="M17.82 5.77004C16.07 4.45004 14.07 3.73004 12 3.73004C8.47003 3.73004 5.18003 5.81004 2.89003 9.41003C1.99003 10.82 1.99003 13.19 2.89003 14.6C3.68003 15.84 4.60003 16.91 5.60003 17.77M8.42003 19.53C9.56003 20.01 10.77 20.27 12 20.27C15.53 20.27 18.82 18.19 21.11 14.59C22.01 13.18 22.01 10.81 21.11 9.40003C20.78 8.88003 20.42 8.39004 20.05 7.93004" stroke="white" stroke-width="1.16119" stroke-linecap="round" stroke-linejoin="round"/>
<path d="M15.51 12.7C15.3745 13.3976 15.0337 14.0388 14.5312 14.5412C14.0287 15.0437 13.3876 15.3846 12.69 15.52M9.47 14.53L2 22M22 2.00003L14.53 9.47003" stroke="white" stroke-width="1.16119" stroke-linecap="round" stroke-linejoin="round"/>
</svg>
